<svg id="Lager_1" data-name="Lager 1" xmlns="http://www.w3.org/2000/svg" xmlns:xlink="http://www.w3.org/1999/xlink" viewBox="0 0 1578 2302"><defs><style>.cls-1{fill:#f0f;}</style></defs><title>perfume_overlay</title><image width="1216" height="2302" transform="translate(170)" xlink:href="perfume.png"/><path class="cls-1" d="M1559.17,401.22q-3.19-9.16-7-19.3a109.54,109.54,0,0,0-8.55-18.1q-9.95,17.5-24.27,25.07T1486,396.45a56.67,56.67,0,0,1-28.65-7.76A91.83,91.83,0,0,1,1433.44,369a99.5,99.5,0,0,1-16.51-26.46q-6.17-14.53-6.17-27.65,0-13.93,5.77-21.29a18.08,18.08,0,0,1,14.92-7.36,14.06,14.06,0,0,1,9.75,3.78,12.54,12.54,0,0,1,4.18,9.75,12.3,12.3,0,0,1-1.79,6,9.7,9.7,0,0,1-4.58,4.38,34.62,34.62,0,0,0-4.77-3.38,10.82,10.82,0,0,0-5.57-1.39q-6.77,0-9.95,4t-3.18,10.34q0,10.34,7.56,20.09A79,79,0,0,0,1443,357.46a112.37,112.37,0,0,0,27.65,12.73,103.08,103.08,0,0,0,30.83,4.77q14.32,0,23.47-4.18a36.42,36.42,0,0,0,15.12-12.93q-11.94-20.69-33.42-37.8a489.74,489.74,0,0,0-47.55-33.22Q1433,270.72,1405,254.41a554.32,554.32,0,0,1-53.31-35.21,298.74,298.74,0,0,1-45.56-42,157.31,157.31,0,0,1-30.64-52.92h-.8q-2.79,17.5-3.78,32.82t-1,33.22q0,59.28,27.65,102.65t76.19,74.8l-1.59,3.18a374.5,374.5,0,0,1-47.15-36.4,187.32,187.32,0,0,1-33.42-40.38,172.54,172.54,0,0,1-19.89-47.94q-6.57-26.06-6.57-59.48a279.1,279.1,0,0,1,2.39-34.81q2.39-18.9,5.57-34,0-3.58-4-21.48t-4-48.94q0-19.9,3.18-28.25t8.36-8.36q5.17,0,8.35,4.77t3.18,16.71q0,9.55-.8,18.7t-2.19,19.3q-1.4,10.15-3.58,21.49t-5,25.26q4,17.5,22.28,35a367.92,367.92,0,0,0,44.36,35.61q26.05,18.1,56.5,37t58.88,39a433.79,433.79,0,0,1,51.13,42q22.68,21.88,33.42,46.15a64.83,64.83,0,0,0,5.37-20.29,187.57,187.57,0,0,0,1.39-21.48,209.49,209.49,0,0,0-5.37-45.56A286.43,286.43,0,0,0,1529.53,217a255.51,255.51,0,0,0-24.07-44.76,211,211,0,0,0-32-37.6,144.66,144.66,0,0,0-39-25.86,109.08,109.08,0,0,0-45.16-9.55q-19.1,0-29.44,9t-10.34,26.46a54.59,54.59,0,0,0,7.76,28.25,83.92,83.92,0,0,0,19.89,22.88,97.26,97.26,0,0,0,27.06,15.32,82.31,82.31,0,0,0,28.85,5.57h15.12v4.77H1433a85.49,85.49,0,0,1-30.44-6A105.44,105.44,0,0,1,1374,189.16a84.56,84.56,0,0,1-21.09-24.87,62.74,62.74,0,0,1-8.16-31.23,44.21,44.21,0,0,1,4-18.9,45.66,45.66,0,0,1,10.74-14.72,48.36,48.36,0,0,1,15.72-9.55,54.11,54.11,0,0,1,19.3-3.38q18.3,0,37.2,8.55a158.5,158.5,0,0,1,36.8,23.67,215.93,215.93,0,0,1,33.62,36.21,265.23,265.23,0,0,1,27.45,46.15,277.35,277.35,0,0,1,18.5,53.51,249.46,249.46,0,0,1,6.76,57.89,131.93,131.93,0,0,1-2.19,25.86,100.18,100.18,0,0,1-6.17,19.89,263.38,263.38,0,0,1,14.32,42.17Z"/><path class="cls-1" d="M1345.12,454.54a102.86,102.86,0,0,1,27.45,28.85q10.34,16.51,10.34,38T1372,553.61q-10.95,10.74-26.86,10.74-14.32,0-28.45-10.74A118.89,118.89,0,0,1,1291,526.16a155.13,155.13,0,0,1-18.7-37.2,121.9,121.9,0,0,1-7.16-40.38q0-21.89,4.77-38.79t13.53-28.65a60.13,60.13,0,0,1,20.69-17.9,56.29,56.29,0,0,1,26.26-6.17q19.89,0,34.22,7.76a87.93,87.93,0,0,1,25.07,20.29,144.86,144.86,0,0,1,19.1,29q8.35,16.51,15.91,33.62a92.25,92.25,0,0,0,5.77,10.74,17.44,17.44,0,0,0,7,6.17,34.43,34.43,0,0,0,11.34,3,171,171,0,0,0,18.5.8,98.64,98.64,0,0,1,33.22,5.57,79,79,0,0,1,27.85,16.91,80.84,80.84,0,0,1,19.3,28.65q7.16,17.31,7.16,40.38a85.5,85.5,0,0,1-2.19,19.1,54.33,54.33,0,0,1-7.16,17.31,41.73,41.73,0,0,1-12.73,12.73q-7.76,5-18.5,5a46.11,46.11,0,0,1-23.47-6,57.67,57.67,0,0,1-17.51-15.52,68.94,68.94,0,0,1-10.74-21.09,76.3,76.3,0,0,1-3.58-22.68,70,70,0,0,1,.8-10.74,36.79,36.79,0,0,1,1.59-7.16l4.38.4q-2,5.17-2,17.51a38.68,38.68,0,0,0,5.57,20.89,54.11,54.11,0,0,0,13.53,14.92,60.06,60.06,0,0,0,16.71,9,48.85,48.85,0,0,0,15.52,3q18.3,0,26.66-10.74T1550,556q0-17.51-7.76-29.44a60.92,60.92,0,0,0-19.5-19.1,85.66,85.66,0,0,0-25.46-10.34,112.26,112.26,0,0,0-25.26-3.18q-15.13,0-25.46-6.37t-16.71-20.29q-7.16-15.52-14.32-30.84a120.74,120.74,0,0,0-17.31-27.25,78.61,78.61,0,0,0-24.67-19.3q-14.53-7.37-36.8-7.36a60.47,60.47,0,0,0-24.27,5.17A65,65,0,0,0,1291.6,402a71.8,71.8,0,0,0-20.09,50.53,114,114,0,0,0,4.38,30.24A102.33,102.33,0,0,0,1289,512a76.11,76.11,0,0,0,22.08,22.08q13.33,8.75,31.23,8.75,17.5,0,26.66-7.16t9.15-23.08a46.1,46.1,0,0,0-3-16.31,68.74,68.74,0,0,0-8-15.12,90.39,90.39,0,0,0-11.34-13.33,99,99,0,0,0-12.73-10.54Z"/><path class="cls-1" d="M1444.19,776a93.81,93.81,0,0,1-32.82-6,98.49,98.49,0,0,1-28.85-16.51A83.06,83.06,0,0,1,1362,728.47a66.9,66.9,0,0,1-7.76-32q0-25.07,14.72-40t39.79-14.92a90.06,90.06,0,0,1,38.59,8.75,136.64,136.64,0,0,1,35,23.87A190.89,190.89,0,0,1,1512,709.57a259.57,259.57,0,0,1,22.88,43.37,267.63,267.63,0,0,1,14.72,47.94,239.25,239.25,0,0,1,5.17,48.74,232.12,232.12,0,0,1-2.78,35.21q-2.79,18.1-9.55,31.23,1.59,4,3.58,9.15t3.78,10.94q1.79,5.76,3.18,11.34a65.69,65.69,0,0,1,1.79,10.34l-2.39.4a80.64,80.64,0,0,0-4.77-18.9,139.11,139.11,0,0,0-8-17.31q-17.11,30.23-49.34,30.24-21.09,0-36-8.16a70.38,70.38,0,0,1-24.27-21.48,89.36,89.36,0,0,1-13.53-30.44,147.09,147.09,0,0,1-4.18-35h-.8q-5.18,12.33-13.73,18.5t-22.08,6.17q-8.76,0-21.48-3.78T1328,869.51q-13.13-4.77-25.26-8.75t-20.09-4q-12.74,0-12.73,11.54,0,11.94,8.16,27.65t25.26,33.22q29.84,30.63,72.81,57.69l-1.59,3.58q-14.32-9.16-32-21.68a298.42,298.42,0,0,1-36-30.44q-41.39-39.39-41.38-72.81,0-13.93,6.76-22.08t20.29-8.16q8.75,0,21.09,4.58T1338.75,850q13.13,5.57,26.26,9.95t23.08,4.38q15.12,0,19.89-8.16t6.76-21.29l4,1.59q-.8,4.37-1.19,8.36a83.17,83.17,0,0,0-.4,8.36A75.5,75.5,0,0,0,1423.7,885a73.51,73.51,0,0,0,17.9,24.47,81.48,81.48,0,0,0,26.46,15.72,92.51,92.51,0,0,0,32.23,5.57,49.61,49.61,0,0,0,19.1-3.78,34.07,34.07,0,0,0,14.72-11.34q-11.94-20.29-36.4-38.79t-54.51-37q-30-18.5-61.47-37.8a508.17,508.17,0,0,1-57.49-40.78q-26.06-21.49-42.57-45.76a92.19,92.19,0,0,1-16.51-52.92,57.42,57.42,0,0,1,1.59-13.13,39.7,39.7,0,0,1,5-12.13,29.59,29.59,0,0,1,8.75-9,22.07,22.07,0,0,1,12.53-3.58q7.16,0,11.54,4.38t4.38,11.94a11.74,11.74,0,0,1-3.58,9,12.3,12.3,0,0,1-8.75,3.38,16.82,16.82,0,0,1-9.15-2.79q-4.38-2.79-4-8.35-5.18,1.19-9.35,8.35a31.76,31.76,0,0,0-4.18,16.31q0,20.68,16.11,38.79t41.58,35.81q25.46,17.7,56.5,35.41t60.87,37.8a448.79,448.79,0,0,1,54.91,43.37q25.07,23.27,38.59,51.52a93.39,93.39,0,0,0,9.15-29.44,219.79,219.79,0,0,0,2.39-31.83,216.32,216.32,0,0,0-4.38-42,253.52,253.52,0,0,0-12.73-43.37,240.47,240.47,0,0,0-20.69-40.78,166.75,166.75,0,0,0-28.45-34.22,134.76,134.76,0,0,0-35.41-23.47,100.39,100.39,0,0,0-42-8.75q-21.89,0-34.62,10.74T1359,696.84a60.32,60.32,0,0,0,8,30.84,82.14,82.14,0,0,0,20.29,23.47,91.9,91.9,0,0,0,27.45,14.92,90.81,90.81,0,0,0,29.44,5.17Z"/><path class="cls-1" d="M1400,1164.33l4.77.8v17.11q17.91,11.54,36.21,23.67a293.74,293.74,0,0,1,34.42,26.66,194.45,194.45,0,0,1,28.65,32.23,118.43,118.43,0,0,1,18.1,39.59h.8q0-10.35.2-21.09t.6-23.27q.39-12.53.6-27.85t.2-34.81q0-39.39-6.76-71.62t-19.1-55.1q-12.34-22.88-28.85-35.61a62.49,62.49,0,0,0-36.4-13.53q-19.1-.8-30.44,13.73t-11.34,39.59a111.28,111.28,0,0,0,5.37,33.42,112.45,112.45,0,0,0,15.12,31,86.69,86.69,0,0,0,23.27,22.88,52.28,52.28,0,0,0,29.44,9,56.17,56.17,0,0,0,12.14-1.19q5.37-1.19,9.75-2.39l.8,4a62.62,62.62,0,0,1-23.08,4.38q-14.32,0-28.25-8.36a91.46,91.46,0,0,1-24.87-22.28,117,117,0,0,1-17.71-32.43,110.87,110.87,0,0,1-6.76-38.39q0-26.66,11.94-42.17t33.42-15.52q21.88,0,42,14.92t35.61,43.17q15.52,28.25,24.67,69.43t9.15,93.7q0,35-.8,61.07t-.8,38.79a153.8,153.8,0,0,0,.8,16.51,125.4,125.4,0,0,1,.8,13.33,78.87,78.87,0,0,1-1,13.53q-1,5.57-7,5.57-5.18,0-8-2t-4-9.75a177.59,177.59,0,0,1-1.39-22.88q-.21-15.13-.2-41-8.35-23.08-22.08-38.59a171.89,171.89,0,0,0-29.84-26.86,307,307,0,0,0-33-20.29,259.1,259.1,0,0,1-31.63-19.69,114.34,114.34,0,0,1,1.19,12.13q.39,7.36,1.19,14.52t2,13.13q1.19,6,3.58,7.56a78.92,78.92,0,0,1,9.55,8.55q4.78,5,4.77,13.33a31.39,31.39,0,0,1-1.59,9.95,311.87,311.87,0,0,0-30-30.64,262.2,262.2,0,0,0-34.42-25.86L1363,1226a145.83,145.83,0,0,1,21.29,9.55q10.15,5.57,20.49,11.14-.8-5.18-1.39-11.34t-1.19-12.14q-.6-6-1-11.14t-.8-8.36q-23.87-14.32-47.35-30.83a269.56,269.56,0,0,1-42.37-36.8,175,175,0,0,1-30.64-45.36q-11.74-25.07-11.74-56.5a102.7,102.7,0,0,1,2.78-22.88,80.69,80.69,0,0,1,8.75-22.48A55.26,55.26,0,0,1,1295,971.76q9.15-6.77,21.88-6.76a25.75,25.75,0,0,1,14.72,4.58q6.76,4.57,6.76,13.33,0,6.36-4,9.75a14.85,14.85,0,0,1-9.95,3.38,17.18,17.18,0,0,1-9.75-2.79,9.38,9.38,0,0,1-4.18-8.36,16.58,16.58,0,0,1,.4-4q-1.19,0-7.36,1t-12.93,6.17q-6.77,5.17-12.14,16.51t-5.37,31.63a90.07,90.07,0,0,0,12.93,47.35,175.46,175.46,0,0,0,32,39,294.15,294.15,0,0,0,41.38,31.63q22.28,14.12,40.58,25.66Z"/><path class="cls-1" d="M1548.43,1638.2q-53.71-33.42-95.49-61.47t-73-48.54q-31.24-20.49-52.72-31.83T1292.6,1485q-8.76,0-14.12,4.18t-5.37,13.73q0,14.32,10.15,31a208.58,208.58,0,0,0,25.66,33.42,440.61,440.61,0,0,0,33.82,32.63q18.3,15.91,34.62,29l-1.19,3.18q-19.9-15.52-39.19-32a363.71,363.71,0,0,1-34.61-33.62,180.6,180.6,0,0,1-24.67-34.42q-9.34-17.31-9.35-34.41,0-16.71,9.55-24.27t25.07-7.56a48.48,48.48,0,0,1,18.7,4.18,107.93,107.93,0,0,1,16.71,8.55l.8-.8q-10.35-9.55-22.68-22.68a292.23,292.23,0,0,1-23.08-27.85,177.57,177.57,0,0,1-17.9-30.24q-7.16-15.52-7.16-30.24,0-13.93,7.16-22.08t20.69-8.16q13.52,0,32.63,9.55a435,435,0,0,1,41,23.67q21.88,14.12,45.16,30.84t45.16,30.84a468.88,468.88,0,0,0,40.58,23.67q18.7,9.55,31.83,9.55,9.94,0,13.73-7a33.28,33.28,0,0,0,3.78-16.11q0-19.9-9.35-40.39a144,144,0,0,0-24.27-37,134.84,134.84,0,0,0-33.42-27.05q-18.5-10.55-36.4-10.54-12.74,0-21.09,6.56t-8.35,22.48a39.77,39.77,0,0,0,2.78,14.92,58.22,58.22,0,0,0,7.16,12.93,66.4,66.4,0,0,0,9.55,10.54,75.46,75.46,0,0,0,10.34,7.76l-.8,4.38A82.72,82.72,0,0,1,1423.1,1385a63.75,63.75,0,0,1-7.76-14.12,41.93,41.93,0,0,1-3-15.52q0-15.52,8.55-24.47t25.26-9q17.9,0,37.2,10.54a137,137,0,0,1,35.21,27.85,149.67,149.67,0,0,1,26.06,39.59,110.19,110.19,0,0,1,10.15,46.15q0,16.71-8,27.25t-23.47,10.54q-13.13,0-32-9.35a423.29,423.29,0,0,1-40.58-23.28q-21.69-13.93-44.56-30.24T1362,1390.72a448.94,448.94,0,0,0-39.39-23.28q-18.11-9.35-30.44-9.35-9.55,0-13.53,4.78a15.82,15.82,0,0,0-4,10.34q0,14.32,9.95,31.83a234,234,0,0,0,23.87,34.22,357.77,357.77,0,0,0,28.85,30.83q14.92,14.12,24.87,21.29,25.86,19.1,72.61,48.54t113.59,71.62Z"/><path class="cls-1" d="M1378.54,2028.11a194.73,194.73,0,0,1-47.74-29.84,165.3,165.3,0,0,1-33.42-39,167.89,167.89,0,0,1-19.5-46.55,210.84,210.84,0,0,1-6.37-52.12,134.49,134.49,0,0,0-.6-13.93q-.6-5.58-1.19-9.15t-1-6a29.46,29.46,0,0,1-.4-4.77,15.67,15.67,0,0,1,1-6,3.46,3.46,0,0,1,3.38-2.39q3.18,0,3.78,3.38a32.61,32.61,0,0,1,.6,5.37,70.84,70.84,0,0,1-.8,10.74q-.8,5.17-1.59,10.74a112.5,112.5,0,0,0,33.22,40.58,282.26,282.26,0,0,0,48.54,29.84q26.86,13.13,56.3,24.47a552.94,552.94,0,0,1,55.9,25.07,259.51,259.51,0,0,1,47.74,31.63,113,113,0,0,1,32,43.77l.8-.8q-2.79-17.11-15.12-36.6a263.39,263.39,0,0,0-30.83-39.19,491.22,491.22,0,0,0-41.38-39q-22.88-19.3-47.15-36.8l-39-27.65q-19.9-14.13-38.79-29.24t-36.4-32.23a291,291,0,0,1-32.23-37.4l4-2.78a218.81,218.81,0,0,0,46.95,22.48q25.06,8.55,50.93,15.92t51.33,14.92a286.68,286.68,0,0,1,48.54,19.3,197.32,197.32,0,0,1,42.57,29.24q19.49,17.5,33,44.16l.8-.8a167.25,167.25,0,0,0-25.26-48.14,284,284,0,0,0-37.4-40.58,387.84,387.84,0,0,0-45-34.61q-24.08-15.92-47.94-30.64t-46.15-28.25a307.11,307.11,0,0,1-39.19-27.85,131.39,131.39,0,0,1-27.06-30.64,67.91,67.91,0,0,1-10.15-36.6,64.31,64.31,0,0,1,.8-10.15,26.88,26.88,0,0,1,3.18-9.15,19.44,19.44,0,0,1,6.37-6.76q4-2.59,10.34-2.58a13.6,13.6,0,0,1,13.93,13.93,10.21,10.21,0,0,1-4,8.36,14.26,14.26,0,0,1-9.15,3.18,18.7,18.7,0,0,1-6.76-1.39,6.56,6.56,0,0,1-4.38-4.57q-2.39.39-4,4.77a24.39,24.39,0,0,0-1.59,8.36q0,17.5,10.94,32.63t29,29.64a407.08,407.08,0,0,0,41.38,28.85q23.27,14.32,48.34,29.84,29,18.3,54.51,36.6a323,323,0,0,1,45.56,39.39,223.1,223.1,0,0,1,34,46.35q13.92,25.26,20.29,57.49l-3.58.4q-7.56-24.67-24.07-41a162.34,162.34,0,0,0-38.79-28,309.59,309.59,0,0,0-48.54-20.29q-26.26-8.56-53.12-17.51t-52.72-19.7a221.89,221.89,0,0,1-47.74-27.05l-.8.8a290,290,0,0,0,30,29.64q17.31,14.92,36.21,29.24t37.8,27.65q18.89,13.32,34.81,24.87,42.57,31,68.43,56.89t40,47.74q14.12,21.88,18.9,40a132.35,132.35,0,0,1,4.77,33.62,37.5,37.5,0,0,1-1.79,11.54q-1.79,5.57-5.77,5.57-3.19,0-4-2.39a17.52,17.52,0,0,1-.8-5.57,53,53,0,0,1,1.39-11.74,55.11,55.11,0,0,0,1.39-12.14q0-9.16-8-18.5a121.41,121.41,0,0,0-20.69-18.7,269.74,269.74,0,0,0-28.45-18.1q-15.72-8.75-31-16.11t-28.45-12.73q-13.13-5.37-20.69-8.55-17.11-6.37-36.4-14.72a240.3,240.3,0,0,1-37.8-20.69,193.15,193.15,0,0,1-34.81-30q-16.32-17.71-27.45-43.17h-.8q0,60.47,26.26,102.45t78.38,66.25Z"/><path class="cls-1" d="M1345.12,2112.45a102.87,102.87,0,0,1,27.45,28.85q10.34,16.51,10.34,38T1372,2211.52q-10.95,10.74-26.86,10.74-14.32,0-28.45-10.74a118.94,118.94,0,0,1-25.66-27.45,155.13,155.13,0,0,1-18.7-37.2,121.91,121.91,0,0,1-7.16-40.39q0-21.89,4.77-38.79t13.53-28.65a60.15,60.15,0,0,1,20.69-17.91,56.3,56.3,0,0,1,26.26-6.17q19.89,0,34.22,7.76a88,88,0,0,1,25.07,20.29,144.88,144.88,0,0,1,19.1,29q8.35,16.51,15.91,33.62a92.18,92.18,0,0,0,5.77,10.74,17.43,17.43,0,0,0,7,6.17,34.41,34.41,0,0,0,11.34,3,170.8,170.8,0,0,0,18.5.8,98.62,98.62,0,0,1,33.22,5.57,79,79,0,0,1,27.85,16.91,80.86,80.86,0,0,1,19.3,28.65q7.16,17.31,7.16,40.38a85.5,85.5,0,0,1-2.19,19.1,54.34,54.34,0,0,1-7.16,17.31,41.74,41.74,0,0,1-12.73,12.73q-7.76,5-18.5,5a46.11,46.11,0,0,1-23.47-6,57.67,57.67,0,0,1-17.51-15.52,69,69,0,0,1-10.74-21.09,76.3,76.3,0,0,1-3.58-22.68,70,70,0,0,1,.8-10.74,36.8,36.8,0,0,1,1.59-7.16l4.38.4q-2,5.16-2,17.5a38.68,38.68,0,0,0,5.57,20.89,54.11,54.11,0,0,0,13.53,14.92,60.05,60.05,0,0,0,16.71,9,48.83,48.83,0,0,0,15.52,3q18.3,0,26.66-10.74t8.36-29.84q0-17.51-7.76-29.44a61,61,0,0,0-19.5-19.1A85.7,85.7,0,0,0,1497.3,2155a112.21,112.21,0,0,0-25.26-3.18q-15.13,0-25.46-6.37t-16.71-20.29q-7.16-15.52-14.32-30.84a120.73,120.73,0,0,0-17.31-27.25,78.63,78.63,0,0,0-24.67-19.3q-14.53-7.37-36.8-7.36a60.46,60.46,0,0,0-24.27,5.17,65,65,0,0,0-20.89,14.32,71.8,71.8,0,0,0-20.09,50.53,114,114,0,0,0,4.38,30.24,102.34,102.34,0,0,0,13.13,29.24A76.09,76.09,0,0,0,1311.1,2192q13.33,8.75,31.23,8.75,17.5,0,26.66-7.16t9.15-23.08a46.1,46.1,0,0,0-3-16.31,68.72,68.72,0,0,0-8-15.12,90.43,90.43,0,0,0-11.34-13.33,99,99,0,0,0-12.73-10.54Z"/></svg>